<?xml version="1.0" standalone="no"?>
<!DOCTYPE svg PUBLIC "-//W3C//DTD SVG 20010904//EN"
 "http://www.w3.org/TR/2001/REC-SVG-20010904/DTD/svg10.dtd">
<svg version="1.0" xmlns="http://www.w3.org/2000/svg"
 width="500.000000pt" height="500.000000pt" viewBox="0 0 500.000000 500.000000"
 preserveAspectRatio="xMidYMid meet">
<metadata>
Created by potrace 1.11, written by Peter Selinger 2001-2013
</metadata>
<g transform="translate(0.000000,500.000000) scale(0.100000,-0.100000)"
fill="#000000" stroke="none">
<path d="M2870 4016 c0 -2 7 -6 15 -10 8 -3 15 -1 15 4 0 6 -7 10 -15 10 -8 0
-15 -2 -15 -4z"/>
<path d="M3255 3722 c6 -27 3 -33 -24 -46 -16 -9 -42 -16 -56 -16 -14 0 -24
-4 -20 -9 3 -6 -19 -8 -54 -6 -45 3 -60 1 -65 -10 -6 -17 -36 -21 -36 -5 0 6
-8 5 -20 -2 -15 -10 -22 -10 -31 -1 -9 9 -20 8 -48 -6 -20 -9 -44 -16 -53 -14
-10 3 -55 -3 -100 -13 -46 -9 -94 -18 -106 -20 -13 -1 -45 -7 -70 -13 -26 -5
-90 -17 -142 -26 -52 -9 -147 -27 -210 -41 -63 -13 -153 -31 -200 -39 -47 -9
-119 -23 -160 -31 -41 -9 -86 -17 -100 -18 -14 -2 -72 -12 -130 -24 -232 -46
-429 -83 -461 -86 -19 -2 -41 -5 -49 -9 -27 -9 -132 -27 -166 -27 -23 0 -34 5
-36 18 -3 13 -5 12 -10 -6 -4 -13 -4 -21 -1 -18 3 3 15 -7 27 -22 11 -15 63
-76 116 -137 165 -189 403 -468 443 -517 25 -32 33 -48 24 -48 -40 0 -695
-207 -844 -267 -122 -49 -53 -35 101 21 157 56 181 62 189 49 2 -5 3 -3 1 3
-1 6 21 18 50 27 61 19 106 23 90 7 -12 -12 -6 -70 7 -70 5 0 9 8 10 18 0 13
3 11 10 -6 5 -13 13 -21 18 -18 4 3 16 -14 26 -38 13 -32 23 -42 33 -38 12 4
14 1 8 -14 -12 -31 -12 -39 2 -36 6 1 12 -2 12 -7 0 -5 -6 -12 -12 -14 -10 -4
-10 -6 0 -6 6 -1 12 -9 12 -19 0 -10 11 -25 25 -32 16 -8 23 -20 20 -29 -6
-22 6 -36 34 -39 31 -3 30 -3 33 -35 1 -15 6 -27 11 -27 5 0 7 -7 3 -15 -3 -8
0 -15 6 -15 9 0 9 -3 0 -12 -19 -19 -14 -30 7 -18 28 15 49 14 33 -2 -20 -20
-14 -36 16 -40 25 -3 27 -6 25 -43 -1 -22 -7 -41 -13 -43 -5 -2 -10 -8 -10
-14 0 -7 4 -7 13 1 10 8 17 7 25 -1 8 -8 15 -8 26 1 9 8 16 8 20 2 4 -5 -1
-14 -11 -19 -16 -9 -15 -13 8 -46 41 -60 46 -50 48 97 1 46 5 77 11 77 7 0 10
-61 10 -180 -1 -98 0 -183 2 -187 2 -4 1 -69 -2 -143 -4 -74 -7 -129 -8 -121
-1 8 -8 22 -16 30 -9 11 -12 28 -8 51 l7 35 6 -45 c4 -29 7 -2 7 75 0 66 -4
125 -9 130 -14 18 -20 73 -9 80 13 8 -6 35 -24 35 -6 0 -4 -5 4 -10 10 -6 11
-13 5 -17 -14 -11 -18 -96 -4 -87 6 3 10 0 8 -7 -3 -29 1 -50 11 -44 5 3 10 0
10 -8 0 -8 -7 -14 -16 -13 -9 0 -19 -6 -21 -14 -4 -13 -3 -13 6 0 12 17 15 2
5 -24 -8 -21 -24 -10 -24 15 0 22 -28 69 -40 69 -13 0 28 -98 50 -120 11 -11
20 -26 20 -32 0 -7 -12 0 -26 16 -16 18 -28 25 -32 18 -12 -18 -46 14 -36 35
7 16 8 16 11 -4 3 -13 9 -23 14 -23 15 0 10 46 -6 60 -8 7 -15 19 -15 26 0 8
-7 14 -15 14 -8 0 -19 9 -25 21 -7 13 -19 19 -33 17 -17 -2 -23 3 -25 24 -3
23 0 26 20 22 21 -4 21 -4 3 5 -11 4 -22 7 -25 6 -3 -2 -6 17 -7 42 -1 25 -6
50 -11 55 -7 7 -10 -3 -9 -26 1 -20 5 -36 9 -36 4 0 8 -5 8 -11 0 -8 -5 -7
-15 1 -9 7 -14 19 -11 27 3 8 2 12 -2 9 -4 -2 -12 7 -19 20 -7 15 -7 22 -1 18
6 -4 8 -1 6 7 -3 8 -14 12 -24 10 -18 -3 -18 -2 1 20 11 12 14 19 7 15 -7 -4
-12 -1 -12 9 0 9 -5 13 -11 10 -6 -4 -8 -13 -5 -21 3 -8 -1 -14 -10 -14 -8 0
-21 -15 -29 -32 -8 -19 -14 -26 -15 -15 0 18 -20 25 -20 6 0 -6 -9 -8 -20 -4
-14 5 -20 2 -20 -9 0 -9 8 -16 18 -17 14 0 14 -2 -3 -8 -23 -10 -33 7 -30 51
1 17 -3 28 -11 28 -8 0 -11 -6 -7 -17 4 -11 3 -14 -5 -9 -8 5 -12 -1 -12 -18
0 -14 -4 -28 -10 -31 -5 -3 -10 0 -10 9 0 8 -12 24 -27 35 -18 13 -23 21 -13
21 11 0 12 2 3 8 -8 5 -17 74 -26 202 -8 107 -15 173 -16 145 0 -27 4 -124 10
-215 8 -136 13 -169 29 -190 10 -14 63 -94 116 -178 53 -83 98 -151 99 -150 3
4 -14 268 -19 308 -8 53 5 64 37 34 56 -52 64 -84 66 -263 1 -91 3 -167 6
-169 3 -3 0 -10 -5 -17 -15 -18 269 -465 295 -465 11 0 101 27 200 61 99 33
515 168 925 300 410 132 801 259 870 281 69 22 142 45 163 50 20 6 37 15 37
20 0 5 -9 7 -19 3 -13 -4 -23 0 -30 12 -5 10 -13 14 -18 9 -4 -5 -2 -11 5 -13
25 -9 10 -22 -39 -32 -28 -6 -55 -9 -60 -6 -4 3 -20 -2 -34 -11 -24 -16 -25
-16 -25 7 0 15 3 19 8 12 5 -8 12 -9 22 -2 13 8 13 10 0 19 -8 5 -21 10 -28
10 -10 0 -9 4 3 16 9 9 14 23 11 30 -3 9 2 14 14 14 11 0 20 5 20 10 0 6 -9
10 -21 10 -14 0 -24 10 -32 30 -14 36 -23 37 -46 8 -12 -15 -20 -18 -25 -10
-4 7 0 15 8 18 9 3 14 10 11 15 -10 16 7 57 26 62 20 5 28 29 8 25 -6 -2 -13
8 -15 22 -3 13 -10 28 -17 32 -9 6 -8 8 4 8 8 0 20 -12 26 -27 10 -27 11 -26
10 14 0 43 26 89 44 77 8 -5 13 13 12 44 -1 6 4 12 10 12 6 0 7 3 4 6 -4 4
-13 1 -21 -5 -18 -15 -40 -5 -32 14 2 7 -1 18 -7 25 -9 10 -9 11 3 8 9 -3 14
-15 12 -28 -2 -22 -1 -23 16 -7 10 9 23 17 29 17 6 0 9 9 6 20 -3 11 -9 20
-14 20 -14 0 -10 37 4 43 7 3 19 24 26 47 12 41 13 41 32 24 18 -17 19 -16 20
12 1 16 1 33 0 37 -1 5 7 6 17 3 22 -7 52 2 52 15 0 14 -28 11 -33 -3 -3 -9
-7 -6 -12 6 -6 13 -3 23 11 33 16 12 17 15 4 23 -11 7 -7 12 22 25 21 8 42 15
48 15 5 0 10 5 10 10 0 6 -6 10 -12 10 -9 0 -8 4 2 10 13 8 12 10 -2 10 -10 0
-18 4 -18 10 0 5 6 7 14 4 8 -3 24 4 35 15 13 13 16 21 8 21 -23 0 17 20 43
21 14 0 19 3 13 6 -25 9 -123 -18 -133 -38 -6 -10 -18 -19 -28 -18 -14 0 -14
2 3 10 16 7 14 8 -10 3 -16 -3 -33 -10 -36 -16 -4 -6 -12 -7 -19 -3 -9 6 -11
4 -5 -5 6 -10 3 -12 -13 -8 -12 4 -25 2 -28 -3 -3 -5 -20 -9 -37 -8 -36 2
-155 -29 -163 -42 -3 -5 -15 -9 -27 -9 -35 0 -187 -42 -182 -51 3 -4 -4 -5
-14 -2 -11 3 -57 -7 -103 -21 -45 -14 -146 -41 -223 -60 -77 -19 -182 -46
-232 -59 -51 -14 -93 -23 -93 -21 0 3 -12 -2 -27 -9 -16 -8 -64 -22 -107 -32
-44 -9 -98 -24 -120 -32 -23 -8 -52 -17 -66 -19 -43 -8 -122 -26 -198 -46
l-73 -19 -22 27 c-37 47 -85 126 -121 202 -19 40 -44 85 -55 101 -12 16 -21
34 -21 41 0 6 -13 30 -29 53 -47 70 -141 252 -141 275 0 12 -4 22 -10 22 -5 0
-10 -7 -10 -15 0 -8 -4 -15 -10 -15 -5 0 -10 5 -10 11 0 6 -16 26 -37 45 -47
44 -36 56 15 15 22 -17 45 -31 50 -31 6 0 15 -6 19 -13 6 -11 32 -8 133 14 69
16 442 98 830 184 388 85 802 177 920 204 118 27 310 70 425 96 116 25 221 51
235 57 14 6 31 10 38 9 6 -1 12 5 12 14 0 9 -4 13 -10 10 -5 -3 -10 -1 -10 4
0 11 -50 45 -218 149 -107 67 -96 49 14 -23 46 -30 84 -57 84 -60 0 -7 -9 -1
-147 88 -62 39 -179 114 -260 166 -266 169 -359 233 -369 254 -5 11 -15 23
-23 25 -10 3 -12 -3 -6 -26z m870 -547 l20 -16 -20 10 c-11 5 -29 17 -40 26
l-20 16 20 -10 c11 -5 29 -17 40 -26z m-2640 -675 c-11 -5 -29 -8 -40 -8 -16
0 -15 2 5 8 34 11 60 11 35 0z m35 -135 c0 -5 -5 -3 -10 5 -5 8 -10 20 -10 25
0 6 5 3 10 -5 5 -8 10 -19 10 -25z m-380 18 c-1 -13 -30 -48 -30 -36 0 7 5 15
10 18 6 4 8 11 5 16 -4 5 -1 9 4 9 6 0 11 -3 11 -7z m409 -58 l0 -20 -9 20
c-5 11 -9 29 -9 40 l0 20 9 -20 c5 -11 9 -29 9 -40z m2302 -11 c-1 -8 -51 -16
-51 -8 0 6 44 23 48 19 2 -2 3 -7 3 -11z m-44 -70 c-3 -3 -12 -4 -19 -1 -8 3
-5 6 6 6 11 1 17 -2 13 -5z m-2260 -46 c-3 -7 -5 -2 -5 12 0 14 2 19 5 13 2
-7 2 -19 0 -25z m0 -70 c-3 -8 -6 -5 -6 6 -1 11 2 17 5 13 3 -3 4 -12 1 -19z
m-250 -70 c-3 -7 -5 -2 -5 12 0 14 2 19 5 13 2 -7 2 -19 0 -25z m38 -26 c-11
-11 -27 17 -20 35 6 16 8 16 16 -6 5 -13 7 -26 4 -29z m221 -48 c2 -20 -1 -32
-6 -29 -6 4 -10 1 -10 -4 0 -6 4 -11 9 -11 10 0 8 -46 -2 -56 -3 -3 -10 11
-16 33 -7 25 -7 39 -1 41 6 2 10 20 10 40 0 44 13 34 16 -14z m2008 -119 c-4
-8 -11 -15 -16 -15 -6 0 -5 6 2 15 7 8 14 15 16 15 2 0 1 -7 -2 -15z m-2074
-5 c0 -5 -2 -10 -4 -10 -3 0 -8 5 -11 10 -3 6 -1 10 4 10 6 0 11 -4 11 -10z
m10 -30 c0 -5 -5 -10 -11 -10 -5 0 -7 5 -4 10 3 6 8 10 11 10 2 0 4 -4 4 -10z
m-15 -40 c3 -5 1 -10 -4 -10 -6 0 -11 5 -11 10 0 6 2 10 4 10 3 0 8 -4 11 -10z
m55 -50 c0 -5 -4 -10 -10 -10 -5 0 -10 5 -10 10 0 6 5 10 10 10 6 0 10 -4 10
-10z m1982 -94 c5 3 4 -3 -4 -15 -16 -26 -28 -27 -28 -3 0 22 13 38 18 23 2
-6 8 -8 14 -5z m51 -72 c3 -4 -1 -13 -9 -21 -17 -18 -10 -33 17 -33 10 0 19
-4 19 -10 0 -12 -2 -12 -34 0 -20 7 -25 15 -22 32 3 13 5 26 5 31 1 9 15 9 24
1z m-63 -18 c0 -8 6 -17 13 -19 9 -4 9 -6 0 -6 -7 -1 -17 8 -23 19 -7 14 -7
20 0 20 5 0 10 -6 10 -14z m90 -16 c0 -5 -4 -10 -10 -10 -5 0 -10 5 -10 10 0
6 5 10 10 10 6 0 10 -4 10 -10z m-2432 -45 c-3 -3 -9 2 -12 12 -6 14 -5 15 5
6 7 -7 10 -15 7 -18z m2316 0 c-4 -8 -8 -15 -10 -15 -2 0 -4 7 -4 15 0 8 4 15
10 15 5 0 7 -7 4 -15z m-2147 -17 c-3 -8 -6 -5 -6 6 -1 11 2 17 5 13 3 -3 4
-12 1 -19z m2178 12 c3 -5 1 -10 -4 -10 -6 0 -11 5 -11 10 0 6 2 10 4 10 3 0
8 -4 11 -10z m41 -27 c-10 -10 -19 5 -10 18 6 11 8 11 12 0 2 -7 1 -15 -2 -18z
m-2136 -3 c0 -5 -2 -10 -4 -10 -3 0 -8 5 -11 10 -3 6 -1 10 4 10 6 0 11 -4 11
-10z m2110 0 c0 -5 -5 -10 -11 -10 -5 0 -7 5 -4 10 3 6 8 10 11 10 2 0 4 -4 4
-10z m-2160 -42 c0 -5 -4 -8 -10 -8 -5 0 -10 10 -10 23 0 18 2 19 10 7 5 -8
10 -18 10 -22z m172 -20 c-7 -7 -12 -8 -12 -2 0 6 3 14 7 17 3 4 9 5 12 2 2
-3 -1 -11 -7 -17z m-165 -20 c-3 -8 -6 -5 -6 6 -1 11 2 17 5 13 3 -3 4 -12 1
-19z m194 -198 c5 0 9 -5 9 -11 0 -5 -4 -8 -9 -5 -5 4 -12 0 -14 -6 -3 -7 -6
-4 -6 7 -1 11 -4 31 -6 45 -5 23 -4 23 6 -2 6 -16 15 -28 20 -28z m6 -132 c-2
-18 -4 -4 -4 32 0 36 2 50 4 33 2 -18 2 -48 0 -65z m1 -125 c-2 -43 -8 -77
-13 -76 -5 1 -11 7 -13 15 -3 10 -1 10 6 -1 7 -10 10 -1 10 30 -1 71 2 109 7
109 3 0 4 -35 3 -77z m-31 -25 c-3 -8 -6 -5 -6 6 -1 11 2 17 5 13 3 -3 4 -12
1 -19z m40 -77 c0 -11 -5 -18 -9 -15 -4 3 -5 11 -1 19 7 21 12 19 10 -4z"/>
<path d="M690 3606 c0 -2 8 -10 18 -17 15 -13 16 -12 3 4 -13 16 -21 21 -21
13z"/>
<path d="M850 3376 c0 -2 8 -10 18 -17 15 -13 16 -12 3 4 -13 16 -21 21 -21
13z"/>
<path d="M4635 3290 c-13 -6 -15 -9 -5 -9 8 0 22 4 30 9 18 12 2 12 -25 0z"/>
<path d="M4220 3160 c0 -6 11 -8 28 -4 39 10 40 14 4 14 -18 0 -32 -5 -32 -10z"/>
<path d="M4480 2836 c0 -2 8 -10 18 -17 15 -13 16 -12 3 4 -13 16 -21 21 -21
13z"/>
<path d="M4650 2655 c30 -30 57 -55 59 -55 3 0 -19 25 -49 55 -30 30 -57 55
-59 55 -3 0 19 -25 49 -55z"/>
<path d="M4558 2533 c7 -3 16 -2 19 1 4 3 -2 6 -13 5 -11 0 -14 -3 -6 -6z"/>
<path d="M4488 2513 c7 -3 16 -2 19 1 4 3 -2 6 -13 5 -11 0 -14 -3 -6 -6z"/>
<path d="M4125 2410 c-3 -6 1 -7 9 -4 18 7 21 14 7 14 -6 0 -13 -4 -16 -10z"/>
<path d="M4020 2380 c-18 -12 -2 -12 25 0 13 6 15 9 5 9 -8 0 -22 -4 -30 -9z"/>
<path d="M1057 2363 c-10 -10 -8 -45 2 -39 11 7 21 46 12 46 -4 0 -11 -3 -14
-7z"/>
<path d="M3950 2360 c-13 -9 -13 -10 0 -9 8 0 24 4 35 9 l20 9 -20 0 c-11 0
-27 -4 -35 -9z"/>
<path d="M1126 2276 c3 -9 11 -16 16 -16 13 0 5 23 -10 28 -7 2 -10 -2 -6 -12z"/>
<path d="M1090 2270 c0 -5 5 -10 10 -10 6 0 10 5 10 10 0 6 -4 10 -10 10 -5 0
-10 -4 -10 -10z"/>
<path d="M973 2195 c0 -44 2 -61 4 -37 2 23 2 59 0 80 -2 20 -4 1 -4 -43z"/>
<path d="M1845 2230 c-19 -7 -19 -7 3 -14 26 -9 41 -1 26 13 -5 5 -18 5 -29 1z"/>
<path d="M3787 2189 c-4 -15 -2 -19 10 -15 8 3 17 6 19 6 2 0 4 7 4 15 0 23
-27 18 -33 -6z"/>
<path d="M1230 2073 c0 -5 5 -15 10 -23 9 -13 11 -13 19 0 5 8 7 18 5 22 -6
10 -34 11 -34 1z"/>
<path d="M1280 2000 c0 -5 5 -10 10 -10 6 0 10 -7 10 -15 0 -8 5 -15 10 -15
11 0 13 11 4 34 -7 17 -34 22 -34 6z"/>
<path d="M3670 2001 c0 -6 4 -13 10 -16 6 -3 7 1 4 9 -7 18 -14 21 -14 7z"/>
<path d="M3670 1929 c0 -5 5 -7 10 -4 6 3 10 8 10 11 0 2 -4 4 -10 4 -5 0 -10
-5 -10 -11z"/>
<path d="M3670 1890 c0 -5 9 -10 20 -10 11 0 20 5 20 10 0 6 -9 10 -20 10 -11
0 -20 -4 -20 -10z"/>
<path d="M1076 1824 c-4 -10 -1 -14 6 -12 15 5 23 28 10 28 -5 0 -13 -7 -16
-16z"/>
<path d="M1060 1790 c0 -5 5 -10 11 -10 5 0 7 5 4 10 -3 6 -8 10 -11 10 -2 0
-4 -4 -4 -10z"/>
<path d="M1095 1791 c-3 -5 -1 -12 5 -16 5 -3 10 1 10 9 0 18 -6 21 -15 7z"/>
<path d="M3590 1779 c0 -5 6 -7 13 -3 8 5 8 2 -2 -9 -14 -17 -5 -23 14 -9 18
13 15 32 -5 32 -11 0 -20 -5 -20 -11z"/>
<path d="M1080 1735 c0 -8 5 -15 10 -15 6 0 10 7 10 15 0 8 -4 15 -10 15 -5 0
-10 -7 -10 -15z"/>
<path d="M1140 1700 c0 -5 5 -10 10 -10 6 0 10 5 10 10 0 6 -4 10 -10 10 -5 0
-10 -4 -10 -10z"/>
<path d="M3606 1702 c-3 -5 8 -6 25 -4 16 2 29 6 29 8 0 8 -49 4 -54 -4z"/>
<path d="M1460 1675 c0 -8 5 -15 10 -15 6 0 10 7 10 15 0 8 -4 15 -10 15 -5 0
-10 -7 -10 -15z"/>
<path d="M3580 1649 c0 -5 -4 -7 -10 -4 -5 3 -10 1 -10 -5 0 -15 32 -9 38 8 2
6 -1 12 -7 12 -6 0 -11 -5 -11 -11z"/>
<path d="M3597 1623 c-12 -12 -7 -22 8 -17 8 4 15 10 15 15 0 11 -14 12 -23 2z"/>
<path d="M3610 1590 c0 -5 5 -10 10 -10 6 0 10 5 10 10 0 6 -4 10 -10 10 -5 0
-10 -4 -10 -10z"/>
<path d="M1435 1550 c3 -5 8 -10 11 -10 2 0 4 5 4 10 0 6 -5 10 -11 10 -5 0
-7 -4 -4 -10z"/>
<path d="M1470 1525 c0 -8 4 -15 10 -15 5 0 7 7 4 15 -4 8 -8 15 -10 15 -2 0
-4 -7 -4 -15z"/>
<path d="M1410 1522 c0 -5 6 -15 13 -21 14 -11 27 -5 27 12 0 6 -3 7 -7 4 -3
-4 -12 -2 -20 4 -8 7 -13 8 -13 1z"/>
<path d="M3676 1493 c5 -20 -9 -24 -27 -7 -11 10 -19 12 -24 5 -3 -6 1 -11 9
-11 9 0 16 -6 16 -14 0 -8 9 -14 19 -13 11 0 17 5 15 9 -3 4 2 8 10 8 9 0 16
-5 16 -12 0 -6 2 -9 5 -6 9 9 -6 38 -20 38 -7 0 -15 3 -18 8 -2 4 -3 2 -1 -5z"/>
<path d="M1497 1469 c4 -13 9 -17 15 -11 11 11 3 32 -12 32 -4 0 -6 -9 -3 -21z"/>
<path d="M3841 1476 c-10 -12 -8 -13 8 -9 12 3 21 9 21 14 0 14 -16 11 -29 -5z"/>
</g>
</svg>
