<?xml version="1.0" standalone="no"?>
<!DOCTYPE svg PUBLIC "-//W3C//DTD SVG 20010904//EN"
 "http://www.w3.org/TR/2001/REC-SVG-20010904/DTD/svg10.dtd">
<svg version="1.0" xmlns="http://www.w3.org/2000/svg"
 width="666.000000pt" height="666.000000pt" viewBox="0 0 666.000000 666.000000"
 preserveAspectRatio="xMidYMid meet">
<metadata>
Created by potrace 1.11, written by Peter Selinger 2001-2013
</metadata>
<g transform="translate(0.000000,666.000000) scale(0.100000,-0.100000)"
fill="#000000" stroke="none">
<path d="M3440 5881 l-35 -6 0 -405 0 -405 775 -77 c426 -42 783 -77 792 -78
16 0 16 4 -3 53 -76 193 -195 374 -349 527 -217 218 -456 341 -750 385 -95 15
-361 18 -430 6z"/>
<path d="M1456 4578 c-10 -76 -167 -2250 -164 -2268 3 -15 233 51 1600 459
878 262 1600 479 1604 484 9 8 95 1348 88 1359 -3 5 -707 8 -1564 8 l-1559 0
-5 -42z"/>
<path d="M4082 2770 c-700 -257 -1275 -470 -1278 -473 -7 -6 -93 -1520 -87
-1526 7 -9 200 42 379 100 833 270 1506 745 1888 1332 172 263 300 577 361
885 27 133 29 152 18 151 -5 0 -581 -211 -1281 -469z"/>
</g>
</svg>
