<?xml version="1.0" standalone="no"?>
<!DOCTYPE svg PUBLIC "-//W3C//DTD SVG 20010904//EN"
 "http://www.w3.org/TR/2001/REC-SVG-20010904/DTD/svg10.dtd">
<svg version="1.0" xmlns="http://www.w3.org/2000/svg"
 width="666.000000pt" height="666.000000pt" viewBox="0 0 666.000000 666.000000"
 preserveAspectRatio="xMidYMid meet">
<metadata>
Created by potrace 1.11, written by Peter Selinger 2001-2013
</metadata>
<g transform="translate(0.000000,666.000000) scale(0.100000,-0.100000)"
fill="#000000" stroke="none">
<path d="M3158 6646 c-1 -2 -48 -6 -103 -10 -55 -3 -111 -8 -125 -10 -14 -3
-47 -7 -75 -11 -27 -3 -72 -10 -100 -15 -27 -5 -62 -12 -78 -14 -15 -3 -35 -7
-45 -10 -9 -3 -28 -7 -42 -10 -74 -14 -339 -93 -395 -117 -11 -5 -45 -18 -75
-29 -64 -24 -70 -27 -170 -71 -92 -42 -215 -105 -298 -153 -35 -20 -68 -36
-73 -36 -5 0 -9 -4 -9 -10 0 -5 -7 -10 -15 -10 -9 0 -18 -7 -21 -15 -4 -8 -10
-15 -15 -15 -14 0 -153 -92 -162 -107 -4 -7 -13 -13 -18 -13 -6 0 -24 -13 -42
-30 -18 -16 -36 -30 -41 -30 -5 0 -16 -8 -25 -18 -9 -10 -29 -28 -46 -41 -16
-12 -48 -39 -69 -59 -22 -20 -53 -47 -70 -59 -16 -13 -27 -23 -24 -23 3 0 -41
-47 -98 -104 -57 -58 -104 -107 -104 -110 0 -3 -8 -14 -17 -24 -10 -10 -33
-37 -51 -59 -34 -43 -63 -78 -82 -100 -5 -7 -10 -16 -10 -21 0 -5 -11 -19 -25
-32 -14 -13 -25 -28 -25 -32 0 -5 -6 -16 -13 -23 -22 -25 -32 -40 -46 -67 -8
-15 -23 -37 -33 -48 -10 -11 -16 -20 -13 -20 4 0 -3 -13 -14 -29 -12 -16 -21
-33 -21 -37 0 -4 -6 -15 -14 -23 -7 -9 -29 -45 -48 -81 -19 -36 -39 -74 -45
-85 -24 -42 -112 -243 -134 -305 -12 -36 -26 -69 -29 -75 -18 -26 -123 -404
-145 -520 -54 -292 -65 -679 -30 -1015 7 -63 31 -213 45 -280 6 -25 13 -56 16
-70 3 -14 12 -48 20 -76 8 -28 16 -60 19 -70 7 -35 46 -159 56 -179 6 -12 11
-27 13 -35 1 -8 9 -31 18 -50 8 -19 21 -53 28 -75 7 -22 16 -44 20 -50 4 -5
11 -21 15 -35 8 -26 116 -251 125 -260 3 -3 14 -23 25 -45 11 -22 44 -77 72
-122 29 -46 53 -87 53 -92 0 -5 3 -11 8 -13 4 -2 27 -32 51 -68 25 -36 48 -67
51 -70 3 -3 17 -21 30 -40 13 -19 33 -45 44 -56 12 -12 28 -31 36 -44 39 -58
267 -294 349 -360 24 -19 55 -46 70 -60 14 -14 51 -44 82 -67 31 -23 62 -47
70 -55 17 -15 48 -35 69 -45 8 -4 22 -15 31 -25 9 -10 19 -15 23 -11 3 3 6 1
6 -5 0 -7 6 -12 13 -12 7 0 23 -9 35 -20 12 -11 23 -20 26 -20 2 0 35 -19 72
-42 59 -35 334 -180 341 -179 2 0 24 -9 50 -20 27 -12 64 -27 83 -34 19 -7 44
-16 55 -21 11 -4 22 -8 25 -9 3 -1 16 -6 30 -12 37 -16 233 -75 323 -99 4 -1
10 -3 15 -4 4 -1 12 -3 17 -5 6 -1 12 -3 15 -4 3 -2 14 -4 25 -6 11 -1 31 -5
45 -8 195 -46 412 -66 700 -65 263 1 484 22 675 64 6 1 21 5 35 8 23 5 232 62
255 70 6 1 24 6 40 11 17 4 35 10 40 14 6 3 12 6 15 7 24 4 67 18 75 24 6 4
39 17 75 30 36 13 94 37 130 54 36 16 67 30 70 31 32 9 160 80 160 88 0 6 3 8
6 4 7 -6 81 30 90 44 3 5 10 7 15 4 5 -4 9 -1 9 5 0 6 10 14 23 19 25 10 213
134 269 177 20 16 49 38 64 49 66 47 178 149 312 282 79 79 142 143 139 143
-4 0 42 55 81 97 12 13 22 28 22 33 0 6 3 10 8 10 4 1 27 30 52 67 25 36 52
73 60 82 8 10 24 33 34 52 10 19 26 43 35 54 14 18 28 41 65 110 6 11 13 22
16 25 8 8 29 48 76 143 25 51 54 108 64 128 11 20 17 39 13 43 -3 3 -1 6 5 6
7 0 12 8 12 18 0 10 4 22 9 27 8 9 62 146 67 170 1 6 14 42 28 80 14 39 38
115 52 170 14 55 30 116 35 135 6 19 11 46 13 60 2 14 6 34 9 45 3 11 8 37 11
58 3 20 9 54 12 75 21 131 29 267 29 522 0 209 -9 412 -20 430 -1 3 -6 32 -10
64 -8 75 -44 233 -90 401 -65 237 -182 517 -305 730 -22 39 -43 78 -46 88 -4
9 -10 17 -15 17 -5 0 -9 4 -9 9 0 5 -22 42 -48 83 -27 40 -51 78 -53 83 -2 6
-16 22 -32 38 -15 15 -25 27 -22 27 10 0 -55 83 -114 148 -17 17 -28 32 -24
32 3 0 -15 20 -41 45 -25 25 -46 48 -46 50 0 13 -214 216 -304 290 -21 17 -43
35 -49 40 -39 34 -211 157 -232 167 -14 6 -25 15 -25 20 0 4 -7 8 -15 8 -8 0
-15 5 -15 10 0 6 -7 10 -15 10 -8 0 -15 5 -15 10 0 6 -4 10 -9 10 -4 0 -48 23
-97 52 -137 79 -326 171 -414 201 -25 9 -63 23 -85 33 -22 10 -42 18 -45 19
-3 1 -18 5 -35 10 -16 4 -34 10 -40 14 -5 3 -14 7 -20 8 -5 1 -50 14 -100 28
-49 14 -101 28 -114 31 -14 3 -56 14 -95 24 -39 10 -89 22 -111 25 -22 3 -67
10 -100 15 -137 22 -271 32 -467 35 -113 2 -208 2 -210 1z m657 -766 c121 -16
270 -51 319 -76 16 -8 33 -14 38 -14 19 0 147 -67 218 -114 172 -113 303 -244
420 -419 54 -81 154 -274 165 -319 6 -23 4 -25 -22 -22 -15 1 -59 6 -98 9 -38
4 -83 8 -100 10 -16 2 -59 6 -95 10 -36 4 -78 8 -95 10 -16 2 -66 6 -110 10
-44 4 -91 8 -105 10 -14 2 -56 7 -95 10 -38 3 -86 8 -105 10 -37 4 -94 10
-200 20 -36 4 -76 8 -90 10 -14 2 -54 6 -90 10 -36 3 -83 7 -105 10 -123 12
-193 18 -220 20 l-30 2 0 404 0 404 50 6 c76 8 282 8 350 -1z m765 -1275 c6
-4 8 -9 6 -13 -2 -4 -7 -63 -10 -132 -4 -69 -9 -145 -11 -170 -3 -25 -7 -88
-10 -140 -7 -117 -13 -220 -20 -325 -3 -44 -7 -118 -10 -165 -2 -47 -7 -114
-10 -150 -2 -36 -7 -108 -11 -160 -3 -52 -7 -96 -8 -98 -3 -2 -123 -39 -336
-102 -52 -15 -196 -58 -320 -95 -246 -73 -347 -103 -370 -109 -8 -3 -44 -13
-80 -24 -36 -11 -256 -77 -490 -147 -234 -69 -508 -151 -609 -182 -101 -30
-191 -56 -200 -59 -21 -5 -112 -32 -316 -94 -93 -28 -183 -55 -200 -60 -16 -4
-85 -24 -152 -44 -67 -20 -125 -36 -128 -36 -4 0 -4 26 -1 58 3 31 8 91 11
132 3 41 7 100 10 130 2 30 7 98 10 150 4 52 8 109 10 125 2 17 6 77 10 135 4
58 8 121 10 140 2 19 6 78 10 130 3 52 8 115 10 140 2 25 7 81 10 125 3 44 8
107 10 140 2 33 7 101 10 150 3 50 8 106 10 125 3 19 7 78 10 130 4 52 8 115
10 140 2 25 7 92 11 150 3 58 8 114 9 125 1 11 3 37 4 58 l1 37 1555 -4 c856
-3 1560 -8 1565 -11z m785 -1394 c-3 -10 -7 -33 -10 -51 -2 -17 -6 -43 -10
-58 -3 -15 -7 -36 -9 -47 -63 -323 -240 -711 -451 -985 -112 -146 -156 -195
-275 -313 -299 -295 -631 -513 -1125 -737 -179 -81 -591 -218 -710 -236 -16
-3 -36 -7 -43 -10 -14 -4 -13 63 3 326 2 30 6 107 9 170 4 63 9 151 11 195 9
144 14 228 20 340 3 61 8 139 10 175 2 36 7 119 10 185 4 66 10 124 15 128 6
7 646 245 1105 411 444 161 683 249 700 256 18 8 221 83 355 130 30 11 125 46
210 79 173 66 194 71 185 42z"/>
</g>
</svg>
