<?xml version="1.0" standalone="no"?>
<!DOCTYPE svg PUBLIC "-//W3C//DTD SVG 20010904//EN"
 "http://www.w3.org/TR/2001/REC-SVG-20010904/DTD/svg10.dtd">
<svg version="1.0" xmlns="http://www.w3.org/2000/svg"
 width="666.000000pt" height="666.000000pt" viewBox="0 0 666.000000 666.000000"
 preserveAspectRatio="xMidYMid meet">
<metadata>
Created by potrace 1.11, written by Peter Selinger 2001-2013
</metadata>
<g transform="translate(0.000000,666.000000) scale(0.100000,-0.100000)"
fill="#000000" stroke="none">
<path d="M3160 6648 c-3 -3 -50 -8 -105 -12 -159 -9 -323 -34 -480 -70 -116
-27 -323 -93 -453 -143 -188 -73 -571 -266 -602 -303 -3 -3 -23 -17 -45 -30
-22 -13 -83 -55 -135 -94 -80 -59 -122 -92 -226 -181 -30 -25 -223 -217 -259
-256 -81 -91 -215 -260 -260 -330 -5 -9 -28 -42 -50 -75 -22 -32 -45 -68 -51
-79 -24 -45 -39 -70 -45 -75 -6 -6 -15 -22 -101 -194 -101 -200 -215 -515
-264 -728 -105 -456 -109 -967 -9 -1473 16 -84 111 -390 160 -515 32 -83 116
-268 148 -325 197 -359 346 -557 613 -820 142 -140 195 -186 289 -256 33 -24
62 -47 65 -50 11 -13 220 -148 296 -192 261 -149 611 -292 864 -352 198 -47
182 -44 375 -72 94 -14 189 -18 440 -18 317 0 397 6 595 41 153 27 398 93 530
142 8 3 17 6 20 7 3 1 16 7 30 13 14 6 67 28 118 48 118 45 386 181 420 212 7
6 18 12 23 12 22 0 292 191 409 289 187 157 416 398 510 537 19 27 37 51 41
54 13 10 127 186 184 285 137 238 264 542 330 790 14 55 28 107 30 115 13 47
27 109 31 137 2 18 8 52 13 75 41 190 51 761 18 1008 -10 74 -24 158 -32 187
-7 28 -11 54 -8 57 3 2 1 11 -3 18 -5 7 -10 20 -11 29 -1 9 -19 77 -39 150
-45 167 -130 399 -200 542 -31 63 -49 99 -113 221 -9 17 -19 35 -24 40 -4 6
-40 63 -79 126 -40 63 -74 117 -77 120 -4 3 -26 32 -51 65 -112 153 -267 324
-400 444 -82 74 -114 101 -197 171 -7 5 -17 10 -23 10 -5 0 -10 4 -10 8 0 9
-45 42 -185 136 -84 56 -114 74 -190 114 -16 8 -32 18 -35 22 -3 4 -57 32
-120 62 -291 140 -440 194 -770 279 -55 14 -258 47 -335 55 -38 3 -79 8 -90
11 -31 6 -469 16 -475 11z m655 -768 c121 -16 270 -51 319 -76 16 -8 33 -14
38 -14 18 0 147 -67 218 -114 169 -111 305 -247 420 -419 54 -81 154 -274 165
-319 6 -23 4 -25 -22 -22 -15 1 -59 6 -98 9 -38 4 -83 8 -100 10 -16 2 -59 6
-95 10 -36 4 -78 8 -95 10 -16 2 -66 6 -110 10 -44 4 -91 8 -104 10 -13 3 -61
7 -105 11 -45 3 -88 8 -97 9 -9 2 -52 6 -95 10 -43 3 -90 8 -104 10 -14 2 -56
7 -95 10 -38 3 -86 8 -105 11 -19 2 -55 6 -80 8 -25 3 -79 8 -120 12 -41 4
-88 8 -105 9 l-30 2 0 404 0 404 50 6 c76 8 282 8 350 -1z m765 -1275 c6 -4 8
-9 6 -13 -2 -4 -7 -63 -10 -132 -4 -69 -9 -145 -11 -170 -2 -25 -7 -88 -10
-140 -6 -109 -13 -211 -20 -325 -3 -44 -7 -118 -10 -165 -2 -47 -7 -114 -10
-150 -2 -36 -7 -108 -11 -160 -3 -52 -7 -96 -8 -98 -3 -2 -123 -39 -336 -102
-52 -15 -196 -58 -320 -95 -246 -73 -347 -103 -370 -109 -8 -3 -44 -13 -80
-24 -36 -11 -256 -77 -490 -147 -234 -69 -508 -151 -609 -182 -101 -30 -191
-56 -200 -59 -21 -5 -112 -32 -316 -94 -93 -28 -183 -55 -200 -60 -16 -4 -85
-24 -152 -44 -67 -20 -125 -36 -128 -36 -4 0 -4 26 -1 58 3 31 8 91 11 132 3
41 7 100 10 130 2 30 7 98 10 150 4 52 8 109 10 125 2 17 6 77 10 135 3 58 8
121 10 140 2 19 7 76 10 125 3 50 7 115 10 145 9 105 17 224 30 415 3 50 8
106 10 125 3 19 7 78 10 130 4 52 8 115 10 140 2 25 7 92 11 150 4 58 8 114 9
125 1 11 3 37 4 58 l1 37 1555 -4 c856 -3 1560 -8 1565 -11z m785 -1394 c-3
-10 -7 -33 -10 -51 -2 -17 -6 -43 -10 -58 -3 -15 -7 -36 -9 -47 -63 -323 -239
-708 -451 -985 -112 -146 -156 -196 -275 -313 -324 -319 -743 -585 -1230 -779
-219 -88 -503 -179 -605 -194 -16 -3 -36 -7 -43 -9 -13 -5 -13 68 3 325 2 30
6 107 9 170 4 63 9 151 11 195 9 144 14 228 20 340 3 61 8 139 10 175 2 36 7
119 10 185 4 66 10 124 15 128 6 7 646 245 1105 411 444 161 683 249 700 256
18 8 221 83 355 130 30 11 125 46 210 79 173 66 194 71 185 42z"/>
</g>
</svg>
