<?xml version="1.0" standalone="no"?>
<!DOCTYPE svg PUBLIC "-//W3C//DTD SVG 20010904//EN"
 "http://www.w3.org/TR/2001/REC-SVG-20010904/DTD/svg10.dtd">
<svg version="1.0" xmlns="http://www.w3.org/2000/svg"
 width="700.000000pt" height="700.000000pt" viewBox="0 0 700.000000 700.000000"
 preserveAspectRatio="xMidYMid meet">
<metadata>
Created by potrace 1.11, written by Peter Selinger 2001-2013
</metadata>
<g transform="translate(0.000000,700.000000) scale(0.100000,-0.100000)"
fill="#000000" stroke="none">
<path d="M3749 6996 c-2 -2 -32 -6 -67 -9 -35 -2 -66 -7 -69 -10 -8 -9 -8
-1085 0 -1094 9 -8 11 -9 117 -17 47 -4 99 -9 115 -11 17 -2 62 -6 100 -10 39
-3 81 -7 95 -9 14 -3 59 -7 100 -11 160 -14 273 -25 302 -30 13 -2 59 -6 103
-10 44 -3 94 -8 110 -10 17 -2 62 -7 100 -10 39 -3 84 -8 100 -10 17 -3 59 -7
95 -10 36 -3 81 -7 100 -10 19 -2 62 -7 95 -10 33 -3 78 -8 100 -10 22 -2 72
-7 110 -10 71 -6 120 -11 200 -20 24 -3 70 -7 102 -10 32 -3 68 -8 81 -11 21
-4 23 -2 17 18 -13 44 -89 213 -117 261 -15 26 -28 50 -28 53 0 12 -112 180
-176 264 -233 304 -529 520 -874 639 -36 13 -72 24 -80 26 -8 2 -42 10 -75 18
-57 15 -134 30 -220 43 -43 6 -431 15 -436 10z"/>
<path d="M957 5258 c-13 -8 -13 -9 -22 -139 -4 -57 -8 -120 -10 -139 -2 -19
-6 -80 -10 -135 -3 -55 -8 -116 -10 -135 -2 -19 -7 -80 -10 -135 -10 -151 -20
-287 -30 -415 -3 -36 -8 -96 -10 -135 -3 -38 -7 -101 -10 -140 -3 -38 -8 -99
-10 -135 -5 -62 -10 -124 -20 -255 -3 -33 -7 -94 -10 -135 -8 -124 -16 -243
-20 -280 -2 -19 -6 -82 -10 -140 -4 -58 -8 -121 -10 -140 -2 -19 -7 -80 -10
-135 -4 -55 -8 -116 -10 -135 -2 -19 -6 -73 -9 -120 -4 -47 -9 -118 -12 -159
-9 -108 -12 -161 -8 -161 4 0 119 34 359 105 83 25 218 65 300 89 83 25 476
142 875 261 399 119 732 218 740 220 8 2 53 16 100 30 47 14 92 28 100 30 8 2
47 14 85 25 39 12 84 25 100 30 43 11 193 56 305 90 151 46 273 82 635 190
187 55 421 125 520 155 99 29 199 58 223 65 36 9 42 15 43 38 0 15 2 47 4 72
1 25 6 95 9 155 4 61 8 135 10 165 3 30 7 100 11 155 3 55 8 129 10 165 2 36
7 106 10 155 3 50 7 124 10 165 10 163 24 373 30 475 3 50 17 289 17 305 0 3
0 10 -1 15 -1 7 -577 11 -1699 13 -933 2 -1888 4 -2120 5 -233 1 -429 -1 -435
-5z"/>
<path d="M6260 3363 c-8 -3 -73 -27 -145 -53 -71 -26 -231 -85 -355 -130 -124
-44 -236 -86 -250 -92 -14 -6 -72 -27 -130 -48 -95 -34 -315 -114 -690 -251
-74 -27 -151 -56 -170 -64 -19 -8 -154 -58 -300 -111 -146 -53 -382 -139 -525
-191 -143 -53 -294 -108 -335 -123 -118 -43 -331 -121 -370 -136 -19 -7 -73
-27 -119 -43 -47 -17 -86 -33 -88 -35 -5 -4 -10 -82 -18 -236 -3 -69 -8 -152
-10 -185 -5 -79 -14 -246 -30 -530 -13 -235 -16 -294 -20 -360 -2 -38 -7 -122
-10 -185 -3 -63 -8 -142 -10 -175 -3 -33 -7 -114 -10 -180 -3 -66 -8 -143 -11
-172 -3 -28 -1 -54 4 -56 4 -3 44 3 88 15 43 11 86 21 94 23 29 6 105 26 130
35 14 5 66 20 115 35 108 32 292 96 395 137 41 17 80 31 85 32 6 1 15 4 20 8
6 3 48 22 95 41 237 98 552 260 760 391 159 101 398 267 446 311 6 5 29 24 50
40 134 104 396 356 520 500 129 150 261 331 364 500 108 176 280 557 325 719
8 28 24 83 35 121 19 63 52 201 63 265 3 14 8 36 11 50 3 14 8 41 11 60 2 19
7 45 9 58 5 23 2 24 -24 15z"/>
</g>
</svg>
