<?xml version="1.0" standalone="no"?>
<!DOCTYPE svg PUBLIC "-//W3C//DTD SVG 20010904//EN"
 "http://www.w3.org/TR/2001/REC-SVG-20010904/DTD/svg10.dtd">
<svg version="1.0" xmlns="http://www.w3.org/2000/svg"
 width="700.000000pt" height="700.000000pt" viewBox="0 0 700.000000 700.000000"
 preserveAspectRatio="xMidYMid meet">
<metadata>
Created by potrace 1.11, written by Peter Selinger 2001-2013
</metadata>
<g transform="translate(0.000000,700.000000) scale(0.100000,-0.100000)"
fill="#000000" stroke="none">
<path d="M3299 6996 c-2 -2 -42 -7 -89 -10 -47 -4 -94 -9 -105 -11 -11 -2 -42
-7 -70 -10 -43 -5 -270 -48 -315 -60 -239 -61 -524 -161 -578 -202 -63 -48
-93 -157 -64 -234 16 -42 64 -91 107 -110 71 -32 127 -25 270 36 156 67 515
152 765 182 148 17 543 8 701 -16 35 -5 84 -13 109 -16 24 -4 47 -8 50 -10 3
-2 21 -6 40 -9 75 -12 241 -56 357 -95 296 -99 576 -243 833 -429 58 -42 107
-79 110 -82 3 -3 43 -37 90 -77 77 -64 249 -236 340 -338 48 -54 195 -253 252
-341 130 -200 247 -443 328 -684 31 -93 93 -325 104 -390 3 -19 8 -46 10 -60
6 -34 25 -166 31 -215 3 -22 7 -141 9 -265 4 -242 -6 -377 -45 -595 -6 -33
-13 -71 -15 -85 -13 -72 -82 -301 -126 -420 -77 -209 -248 -537 -347 -669
l-17 -23 -65 17 c-202 54 -437 -12 -589 -165 -107 -108 -172 -269 -172 -430
-1 -341 270 -612 612 -612 168 0 300 53 430 174 189 174 238 485 114 727 -11
22 -7 32 45 110 108 162 238 397 296 536 16 39 32 75 35 80 4 6 14 33 24 60
10 28 22 59 27 70 36 78 135 442 155 570 4 28 9 57 10 65 26 125 39 313 39
540 -1 248 -14 435 -41 563 -3 12 -7 39 -10 60 -3 21 -19 93 -34 160 -119 523
-359 1008 -709 1437 -136 166 -403 429 -536 526 -22 16 -49 37 -60 47 -33 30
-273 189 -360 239 -272 156 -565 276 -860 353 -181 48 -232 57 -550 100 -44 6
-531 16 -536 11z m2597 -5627 c47 -14 105 -80 119 -136 30 -114 -33 -222 -145
-250 -126 -32 -248 62 -255 197 -2 37 27 106 57 137 64 67 127 81 224 52z"/>
<path d="M1105 6429 c-314 -37 -558 -326 -539 -638 6 -93 21 -151 69 -255 13
-28 11 -33 -35 -101 -334 -496 -540 -1071 -588 -1645 -14 -170 -7 -582 13
-701 2 -13 6 -46 10 -74 12 -96 16 -121 51 -278 32 -145 124 -449 158 -522 8
-16 26 -59 41 -95 240 -576 697 -1131 1235 -1502 500 -345 1096 -558 1690
-605 183 -15 564 -8 681 12 13 2 44 6 69 9 25 3 54 7 65 9 11 3 38 8 60 12 22
4 51 9 64 12 149 27 517 140 645 197 97 43 140 105 139 196 -2 111 -82 193
-194 199 -36 2 -79 -10 -183 -49 -258 -96 -544 -163 -806 -188 -147 -14 -581
-5 -650 13 -8 2 -33 6 -55 10 -37 5 -122 20 -171 29 -548 107 -1101 401 -1523
811 -459 446 -778 1034 -885 1635 -24 130 -25 141 -32 195 -3 28 -8 64 -10 80
-9 55 -12 489 -4 555 5 36 11 88 14 115 44 428 227 921 484 1308 24 37 47 67
49 67 3 0 33 -7 67 -16 217 -58 466 24 616 203 224 266 178 674 -100 885 -37
28 -151 87 -179 93 -9 1 -34 8 -56 14 -55 14 -138 18 -210 10z m151 -419 c16
-6 47 -28 68 -49 107 -109 61 -290 -84 -335 -113 -34 -234 36 -258 150 -17 78
1 134 60 191 58 56 129 70 214 43z"/>
<path d="M3397 5754 c-1 -1 -44 -4 -95 -8 -197 -13 -465 -79 -666 -163 -505
-212 -909 -589 -1150 -1073 -108 -217 -168 -398 -206 -618 -83 -481 -15 -962
197 -1387 253 -507 690 -908 1203 -1104 47 -18 94 -37 105 -41 94 -39 361 -93
520 -107 140 -11 449 -5 496 11 8 3 32 7 54 10 33 4 163 30 200 40 390 105
717 286 995 550 130 124 256 277 352 426 60 94 168 303 188 365 7 22 16 45 20
50 22 30 100 320 115 430 4 28 9 59 11 70 9 46 18 198 18 310 -1 155 -11 266
-41 415 -21 112 -23 118 -32 142 -5 13 -9 25 -9 28 0 19 -30 110 -67 204 -125
324 -310 601 -559 835 -27 25 -58 55 -69 65 -42 40 -205 160 -287 211 -214
132 -508 252 -715 291 -22 4 -47 9 -55 10 -8 2 -35 6 -60 10 -25 3 -53 8 -62
9 -64 13 -390 28 -401 19z m179 -430 c40 -19 118 -96 164 -165 169 -247 302
-685 346 -1134 3 -38 8 -78 10 -89 2 -10 6 -64 9 -121 5 -79 3 -103 -7 -107
-7 -2 -281 -4 -608 -3 l-595 0 1 80 c1 78 9 189 20 270 3 22 8 54 10 70 2 17
6 48 9 70 4 22 8 52 11 68 72 471 268 924 453 1044 68 44 108 48 177 17z
m-791 -175 c-47 -91 -141 -349 -160 -439 -2 -8 -15 -60 -29 -115 -13 -55 -29
-127 -35 -160 -6 -33 -13 -71 -16 -85 -3 -14 -8 -45 -11 -70 -3 -25 -8 -54
-10 -65 -4 -21 -20 -153 -29 -245 -3 -30 -8 -100 -11 -155 -3 -55 -8 -102 -11
-105 -2 -3 -184 -5 -404 -5 l-399 0 0 28 c0 53 41 230 81 350 131 398 395 736
759 972 106 69 286 159 298 150 2 -2 -9 -27 -23 -56z m1486 27 c381 -174 712
-502 897 -889 75 -156 162 -456 162 -556 l0 -26 -399 0 c-220 0 -402 3 -405 5
-2 3 -7 50 -11 105 -7 129 -18 238 -31 340 -2 17 -6 46 -9 67 -5 39 -28 170
-44 254 -42 214 -134 508 -210 663 -17 36 -31 66 -31 68 0 6 7 3 81 -31z
m-1798 -1886 c3 -3 8 -52 12 -110 3 -58 8 -125 11 -150 2 -25 7 -67 10 -95 43
-408 153 -837 279 -1084 28 -57 28 -68 -2 -53 -10 5 -61 31 -113 57 -263 131
-492 326 -665 566 -179 248 -295 538 -331 824 l-6 50 400 0 c220 0 403 -2 405
-5z m1633 -95 c-4 -55 -8 -111 -10 -125 -3 -14 -7 -54 -10 -90 -8 -99 -14
-135 -41 -290 -20 -115 -19 -111 -49 -230 -117 -464 -326 -803 -496 -803 -161
0 -363 313 -480 744 -45 164 -86 388 -106 569 -3 30 -7 69 -9 85 -2 17 -6 77
-10 135 l-7 105 612 0 611 0 -5 -100z m1219 35 c-9 -87 -55 -263 -99 -381
-166 -443 -516 -819 -950 -1023 -43 -20 -80 -35 -82 -33 -2 1 8 27 22 57 115
243 215 606 259 930 3 25 8 56 10 70 2 14 7 54 10 90 4 36 8 83 11 105 2 22 6
84 9 139 3 54 7 101 9 105 2 3 185 6 406 6 l402 0 -7 -65z"/>
</g>
</svg>
