<?xml version="1.0" standalone="no"?>
<!DOCTYPE svg PUBLIC "-//W3C//DTD SVG 20010904//EN"
 "http://www.w3.org/TR/2001/REC-SVG-20010904/DTD/svg10.dtd">
<svg version="1.0" xmlns="http://www.w3.org/2000/svg"
 width="562.000000pt" height="562.000000pt" viewBox="0 0 562.000000 562.000000"
 preserveAspectRatio="xMidYMid meet">
<metadata>
Created by potrace 1.11, written by Peter Selinger 2001-2013
</metadata>
<g transform="translate(0.000000,562.000000) scale(0.100000,-0.100000)"
fill="#000000" stroke="none">
<path d="M2685 5369 c-395 -52 -719 -344 -817 -736 -33 -132 -31 -341 5 -476
48 -181 139 -331 280 -463 l85 -79 -435 -750 c-318 -549 -438 -750 -451 -749
-9 1 -57 14 -107 30 -85 27 -100 28 -275 28 -173 0 -191 -2 -273 -27 -338
-104 -589 -368 -673 -709 -8 -35 -17 -119 -21 -188 -10 -245 61 -459 216 -653
202 -250 536 -385 857 -347 404 48 730 332 833 724 12 44 21 92 21 108 l0 28
877 -2 877 -3 12 -70 c58 -338 318 -634 652 -744 241 -78 509 -58 737 57 98
49 149 85 234 166 132 128 222 278 268 453 36 136 38 344 5 477 -24 97 -90
246 -143 322 -89 130 -246 262 -393 329 -144 67 -211 80 -406 80 -181 0 -252
-11 -355 -55 l-40 -17 -432 752 c-238 414 -433 757 -433 761 1 5 26 29 56 53
127 101 258 312 306 491 20 73 23 108 22 250 0 137 -4 178 -22 245 -113 412
-468 698 -893 719 -57 2 -135 0 -174 -5z m311 -219 c479 -121 722 -651 499
-1090 -41 -80 -69 -119 -143 -193 -144 -147 -334 -227 -537 -227 -213 0 -385
72 -541 225 -128 127 -201 273 -225 456 -20 149 21 339 102 474 74 124 227
260 355 316 143 62 338 77 490 39z m658 -2409 l425 -735 -84 -79 c-148 -138
-245 -309 -289 -509 l-21 -98 -876 0 -876 0 -7 58 c-22 190 -162 439 -327 577
l-56 47 96 167 c737 1276 776 1342 796 1337 11 -3 58 -17 105 -32 71 -22 109
-27 231 -31 159 -6 252 7 372 50 l62 23 12 -21 c6 -11 203 -350 437 -754z
m-2551 -765 c211 -41 386 -156 503 -332 157 -236 173 -524 44 -773 -119 -229
-327 -375 -585 -413 -332 -48 -684 162 -808 480 -74 192 -74 372 0 564 130
334 498 540 846 474z m3732 -11 c83 -22 208 -83 282 -139 127 -96 241 -271
279 -431 24 -99 22 -267 -4 -366 -66 -246 -246 -444 -483 -530 -554 -202
-1125 285 -1015 864 59 308 316 561 627 616 72 13 239 6 314 -14z"/>
<path d="M2666 4994 c-190 -46 -360 -200 -426 -385 -31 -89 -39 -259 -16 -348
58 -227 236 -398 463 -446 268 -57 541 73 663 315 48 95 64 164 64 280 0 91
-4 117 -30 190 -70 200 -220 339 -420 390 -91 23 -211 25 -298 4z"/>
<path d="M840 1804 c-217 -46 -398 -219 -455 -434 -19 -73 -19 -240 0 -314 38
-146 155 -297 286 -369 181 -101 417 -101 598 0 132 73 247 222 285 369 20 78
21 241 1 314 -82 309 -399 502 -715 434z"/>
<path d="M4515 1805 c-208 -46 -370 -193 -442 -402 -22 -66 -26 -94 -26 -188
0 -132 29 -233 93 -332 235 -359 771 -363 1008 -9 70 105 93 177 99 311 6 125
-9 199 -58 301 -119 243 -405 379 -674 319z"/>
</g>
</svg>
