<?xml version="1.0" standalone="no"?>
<!DOCTYPE svg PUBLIC "-//W3C//DTD SVG 20010904//EN"
 "http://www.w3.org/TR/2001/REC-SVG-20010904/DTD/svg10.dtd">
<svg version="1.0" xmlns="http://www.w3.org/2000/svg"
 width="536.000000pt" height="536.000000pt" viewBox="0 0 536.000000 536.000000"
 preserveAspectRatio="xMidYMid meet">
<metadata>
Created by potrace 1.11, written by Peter Selinger 2001-2013
</metadata>
<g transform="translate(0.000000,536.000000) scale(0.100000,-0.100000)"
fill="#000000" stroke="none">
<path d="M1638 4670 c-331 -38 -601 -115 -873 -250 -193 -96 -318 -183 -445
-310 -151 -150 -241 -298 -292 -476 -30 -104 -32 -324 -5 -423 72 -262 249
-494 513 -670 l71 -48 -195 -277 c-107 -152 -192 -279 -189 -282 3 -3 254 57
558 134 l554 139 105 -17 c58 -10 132 -21 165 -24 l60 -6 11 57 c33 168 140
350 298 508 123 122 251 214 416 299 386 198 794 285 1281 273 l216 -5 7 71
c14 156 -37 362 -125 509 -136 226 -333 398 -629 546 -230 116 -482 194 -772
238 -120 19 -607 28 -730 14z"/>
<path d="M3285 3210 c-795 -88 -1391 -469 -1526 -976 -28 -104 -30 -279 -5
-379 23 -93 102 -254 164 -335 100 -133 285 -285 462 -383 236 -129 565 -225
883 -257 177 -18 537 -8 714 20 l142 22 516 -127 c284 -70 519 -125 521 -122
3 3 -76 119 -175 259 -99 139 -180 255 -180 258 0 3 37 30 82 60 98 66 257
221 316 308 55 81 116 211 136 287 23 88 30 231 15 322 -31 194 -117 352 -284
519 -262 261 -639 433 -1110 506 -149 22 -535 33 -671 18z"/>
</g>
</svg>
