<?xml version="1.0" standalone="no"?>
<!DOCTYPE svg PUBLIC "-//W3C//DTD SVG 20010904//EN"
 "http://www.w3.org/TR/2001/REC-SVG-20010904/DTD/svg10.dtd">
<svg version="1.0" xmlns="http://www.w3.org/2000/svg"
 width="530.000000pt" height="530.000000pt" viewBox="0 0 530.000000 530.000000"
 preserveAspectRatio="xMidYMid meet">
<metadata>
Created by potrace 1.11, written by Peter Selinger 2001-2013
</metadata>
<g transform="translate(0.000000,530.000000) scale(0.100000,-0.100000)"
fill="#000000" stroke="none">
<path d="M2475 5289 c-93 -10 -169 -21 -176 -25 -3 -2 -21 -6 -40 -9 -151 -27
-403 -157 -497 -258 l-23 -24 36 -22 c20 -11 38 -21 41 -21 3 0 33 -19 67 -41
306 -205 498 -510 546 -869 9 -66 7 -294 -3 -340 -3 -14 -11 -49 -17 -78 -22
-109 -79 -249 -145 -362 -138 -233 -399 -442 -657 -524 -15 -5 -13 -12 20 -63
36 -56 132 -193 143 -203 3 -3 30 -34 60 -70 30 -36 74 -84 97 -107 67 -67 71
-78 67 -168 -9 -217 -30 -297 -94 -371 -68 -77 -106 -83 -510 -85 -190 0 -379
-5 -420 -10 -265 -32 -504 -133 -666 -281 -180 -165 -274 -369 -291 -630 -5
-81 -4 -90 21 -132 25 -44 86 -102 137 -132 75 -44 239 -117 342 -153 183 -63
505 -147 642 -167 17 -3 50 -9 75 -14 38 -8 123 -22 275 -45 58 -9 100 -14
150 -20 28 -3 69 -7 92 -10 193 -22 293 -30 518 -41 265 -13 754 -8 965 11 19
1 75 6 123 10 49 3 98 8 110 10 12 2 49 6 82 9 33 4 76 8 95 11 19 2 55 7 80
10 106 14 186 26 268 41 48 8 114 20 147 25 33 6 87 17 120 24 268 64 339 83
481 130 287 94 481 206 532 305 18 36 22 59 21 113 -5 151 -57 329 -133 451
-161 258 -457 430 -811 471 -27 4 -63 8 -80 10 -16 2 -181 4 -365 5 -362 2
-388 5 -458 58 -90 69 -134 243 -123 487 1 11 33 54 72 95 337 358 532 741
577 1135 14 124 7 505 -12 647 -3 18 -7 52 -10 75 -10 79 -58 276 -88 362
-101 288 -276 506 -511 635 -78 43 -230 98 -322 116 -27 5 -59 11 -70 14 -86
18 -369 27 -480 15z"/>
<path d="M1138 4885 c-2 -2 -25 -5 -53 -9 -114 -13 -263 -65 -370 -128 -234
-137 -397 -353 -471 -620 -32 -117 -40 -303 -19 -423 76 -425 397 -748 825
-829 74 -14 274 -15 355 -1 105 18 341 115 388 159 7 6 37 30 67 53 178 137
310 357 361 603 21 103 16 307 -10 413 -100 397 -381 670 -786 763 -57 13
-278 27 -287 19z m169 -427 c60 -36 72 -81 70 -265 -2 -139 0 -163 13 -164 8
0 87 -2 175 -2 148 -2 163 -4 197 -25 93 -58 96 -189 6 -254 -31 -22 -43 -23
-210 -26 -158 -3 -178 -6 -179 -20 0 -9 -1 -87 -3 -172 -2 -172 -10 -200 -67
-241 -23 -16 -46 -23 -85 -23 -45 0 -59 5 -91 30 -54 44 -62 75 -62 262 l-1
162 -165 0 c-188 0 -216 7 -260 65 -53 68 -33 170 42 216 36 23 48 24 208 25
l170 0 5 175 c3 96 11 185 17 199 15 35 42 57 89 74 45 16 86 11 131 -16z"/>
</g>
</svg>
